<svg width="52" height="52" viewBox="0 0 52 52" fill="none" xmlns="http://www.w3.org/2000/svg">
<path d="M49.3242 21.0851L45.2792 20.1647C44.8955 18.8961 44.3838 17.6654 43.7569 16.4974L45.9691 12.9832C46.8687 11.549 46.8247 10.0562 45.8517 9.08326L42.916 6.14775C41.9451 5.17694 40.4499 5.13083 39.0178 6.03033L35.5012 8.24243C34.3311 7.61548 33.1023 7.10597 31.8357 6.72229L30.9152 2.67549C30.5399 1.02535 29.4515 0 28.0759 0H23.924C22.5463 0 21.4579 1.02535 21.0826 2.67549L20.1642 6.72229C18.8997 7.1039 17.6709 7.61344 16.4966 8.24243L12.9821 6.03033C11.5499 5.1329 10.0569 5.17697 9.08184 6.14775L6.14824 9.08326C5.17317 10.0583 5.12915 11.5533 6.03082 12.9832L8.241 16.4933C7.614 17.6654 7.10445 18.8962 6.72073 20.1626L2.67362 21.083C1.02543 21.4584 0 22.5466 0 23.9242V28.0737C0 29.4513 1.02328 30.5396 2.67362 30.9149L6.72073 31.8353C7.10447 33.1039 7.61614 34.3326 8.24309 35.5026L6.03082 39.0147C5.12703 40.4468 5.17105 41.9417 6.14615 42.9167L9.08189 45.8543C10.0549 46.8252 11.55 46.8692 12.9822 45.9697L16.4946 43.7576C17.6647 44.3866 18.8956 44.8961 20.1642 45.2777L21.0826 49.3245C21.458 50.9747 22.5463 52 23.924 52H28.076C29.4516 52 30.5378 50.9747 30.9153 49.3245L31.8358 45.2777C33.1024 44.894 34.3311 44.3845 35.5012 43.7576L39.0178 45.9697C40.45 46.8692 41.943 46.8252 42.916 45.8522L45.8518 42.9167C46.8247 41.9438 46.8688 40.4509 45.9692 39.0147L43.7569 35.5046C44.386 34.3346 44.8956 33.1038 45.2793 31.8353L49.3243 30.9149C50.9746 30.5395 52 29.4513 52 28.0737V23.9242C52 22.5466 50.9746 21.4584 49.3243 21.083L49.3242 21.0851ZM50.3245 28.0739C50.3245 28.8812 49.3662 29.1873 48.9531 29.2817L44.4258 30.3133C44.1238 30.3825 43.8869 30.611 43.803 30.9088C43.3983 32.3766 42.8111 33.794 42.0541 35.1212C41.9011 35.3896 41.9094 35.7209 42.073 35.983L44.5474 39.9103C44.7718 40.2688 45.2352 41.1641 44.6648 41.7344L41.7291 44.67C41.1608 45.2382 40.2654 44.7769 39.909 44.5525L35.973 42.0762C35.7109 41.9127 35.3817 41.9043 35.1133 42.0574C33.7859 42.8122 32.3683 43.3993 30.9026 43.8019C30.6048 43.8837 30.3762 44.1227 30.307 44.4246L29.2753 48.9537C29.181 49.3667 28.8769 50.325 28.0717 50.325H23.9197C23.1124 50.325 22.8062 49.3667 22.714 48.9537L21.6864 44.4246C21.6172 44.1227 21.3887 43.8837 21.0888 43.8019C19.623 43.4014 18.2055 42.8143 16.8781 42.0574C16.7502 41.984 16.6055 41.9483 16.4629 41.9483C16.3078 41.9483 16.1526 41.9924 16.0163 42.0762L12.0845 44.5504C11.7259 44.7748 10.8327 45.2361 10.2602 44.6679L7.3266 41.7324C6.75414 41.1599 7.21757 40.2667 7.44403 39.9103L9.92053 35.9788C10.0862 35.7167 10.0925 35.3854 9.9394 35.1171C9.18453 33.794 8.59527 32.3766 8.19265 30.9089C8.11088 30.6111 7.87182 30.3826 7.56984 30.3134L3.04045 29.2817C2.62945 29.1874 1.67113 28.8833 1.67113 28.0761V23.9266C1.67113 23.1193 2.62731 22.8132 3.04045 22.7188L7.56984 21.6872C7.8718 21.618 8.11084 21.3894 8.19265 21.0917C8.59527 19.6281 9.18244 18.2107 9.9394 16.8793C10.0925 16.6109 10.0841 16.2796 9.92053 16.0196L7.44822 12.0902C7.22175 11.7338 6.76045 10.8405 7.33289 10.2681L10.2644 7.33263C10.8369 6.7623 11.7323 7.2236 12.0887 7.44795L16.0205 9.92424C16.2826 10.0878 16.6118 10.0962 16.8802 9.94311C18.2139 9.18616 19.6314 8.59909 21.093 8.1986C21.3908 8.11683 21.6193 7.87779 21.6886 7.57584L22.7161 3.04681C22.8104 2.63374 23.1145 1.67551 23.9218 1.67551H28.0738C28.879 1.67551 29.1831 2.63376 29.2774 3.04681L30.3091 7.57584C30.3783 7.87777 30.6069 8.1168 30.9047 8.1986C32.3705 8.60118 33.7859 9.1883 35.1154 9.94311C35.3838 10.0962 35.7151 10.0878 35.9751 9.92424L39.909 7.45004C40.2676 7.22568 41.1608 6.76442 41.7291 7.33262L44.6649 10.2681C45.2352 10.8384 44.7718 11.7338 44.5474 12.0902L42.0709 16.0216C41.9053 16.2837 41.899 16.615 42.0521 16.8834C42.8069 18.2065 43.3962 19.6239 43.7988 21.0916C43.8806 21.3894 44.1196 21.6179 44.4216 21.6871L48.9489 22.7188C49.362 22.8131 50.3203 23.1171 50.3203 23.9244V28.0739L50.3245 28.0739ZM41.2029 25.9499C41.2029 22.9725 40.3495 20.1104 38.7285 17.6385L41.0079 13.9021C41.2092 13.5708 41.1589 13.1473 40.8842 12.8726L39.0766 11.0651C38.804 10.7926 38.3783 10.7401 38.047 10.9414L34.3123 13.2206C31.8379 11.6019 28.9735 10.7485 25.996 10.7485C24.1045 10.7485 22.2655 11.0903 20.5231 11.7654C19.5543 11.1427 18.3591 10.78 17.1009 10.7506C15.3185 10.7066 13.6955 11.323 12.5317 12.4867C11.3679 13.6505 10.7514 15.2733 10.7954 17.0556C10.8269 18.3115 11.1875 19.5088 11.8103 20.4775C11.1351 22.222 10.7933 24.0609 10.7933 25.9499C10.7933 28.3927 11.3826 30.7998 12.5002 32.9554L11.6153 33.8423C11.1309 34.3245 10.8647 34.9662 10.8647 35.6539C10.8647 36.3395 11.131 36.9833 11.6132 37.4634L14.4861 40.3381C14.9851 40.835 15.6415 41.0845 16.2978 41.0845C16.9542 41.0845 17.6105 40.835 18.1075 40.336L18.9966 39.447C21.1459 40.5646 23.5532 41.1538 25.9983 41.1538C27.8897 41.1538 29.7287 40.812 31.4754 40.1369C32.4442 40.7596 33.6394 41.1223 34.8976 41.1517C34.9563 41.1538 35.0151 41.1538 35.0738 41.1538C36.787 41.1538 38.3429 40.5395 39.4669 39.4156C41.6833 37.1951 41.6267 33.6807 40.1861 31.4289C40.8613 29.6823 41.2029 27.8412 41.2029 25.9499ZM38.9047 30.0176C37.4788 28.8393 35.8746 28.4052 34.1173 28.7218L30.3365 24.9413L35.8894 19.3889L37.5669 18.9381C38.8502 21.0475 39.5255 23.4525 39.5255 25.9495C39.5255 27.3438 39.3158 28.7088 38.9026 30.0172L38.9047 30.0176ZM38.3595 12.7174L39.2339 13.5918L37.0363 17.1919C37.0216 17.2129 37.0069 17.236 36.9964 17.259L36.9252 17.3764L35.2371 17.8293C35.0945 17.8671 34.9666 17.9426 34.8618 18.0453L29.1495 23.7571L28.1912 22.7989L33.9035 17.0871C34.0083 16.9822 34.0817 16.8543 34.1194 16.7117L34.5724 15.0238L38.3574 12.7153L38.3595 12.7174ZM33.0123 14.3823L32.5615 16.0618L27.0086 21.6142L23.2278 17.8337C23.5445 16.0766 23.1104 14.4705 21.9319 13.0467C23.2404 12.6337 24.6013 12.424 25.9979 12.424C28.4953 12.424 30.9009 13.0991 33.0123 14.3823ZM12.4726 25.9503C12.4726 24.5559 12.6823 23.1951 13.0954 21.8847C14.5213 23.063 16.1255 23.4992 17.8807 23.1805L20.2712 25.5687C19.9063 25.6903 19.5624 25.8937 19.273 26.183L13.7561 31.7016C12.9174 29.911 12.4749 27.9421 12.4749 25.9479L12.4726 25.9503ZM15.6725 39.1496L12.7997 36.2749C12.634 36.1092 12.5418 35.8891 12.5418 35.6521C12.5418 35.4152 12.634 35.195 12.7997 35.0272L20.4558 27.3696C20.6277 27.1977 20.8542 27.1117 21.0807 27.1117C21.303 27.1117 21.5231 27.1956 21.6951 27.3592C21.7014 27.3675 21.7077 27.3738 21.7161 27.3822L24.5784 30.2443C24.9244 30.5903 24.9244 31.1501 24.5784 31.496L16.9223 39.1515C16.5784 39.4954 16.0164 39.4954 15.6704 39.1515L15.6725 39.1496ZM20.248 38.1956L25.7649 32.6791C26.0564 32.3877 26.2598 32.0438 26.3814 31.679L28.7719 34.0693C28.4552 35.8263 28.8893 37.4325 30.0678 38.8562C28.7572 39.2693 27.3942 39.479 25.9998 39.479C24.0034 39.479 22.0365 39.0366 20.2499 38.1958L20.248 38.1956ZM38.2797 38.2312C37.443 39.0678 36.2562 39.5102 34.9372 39.4767C33.7 39.4473 32.5131 38.9797 31.7624 38.2312C30.5084 36.9773 30.0953 35.5955 30.5 34.0041C30.5734 33.7168 30.4895 33.4149 30.2798 33.2052L25.5973 28.5252C25.5931 28.521 25.591 28.5189 25.5889 28.5147C25.5848 28.5105 25.5806 28.5063 25.5764 28.5021L23.4585 26.3844C23.4522 26.3781 23.448 26.3718 23.4417 26.3655C23.4354 26.3592 23.4291 26.3551 23.4228 26.3488L22.5778 25.5038C22.5568 25.4807 22.5358 25.4597 22.5148 25.4409L18.7425 21.6709C18.5831 21.5115 18.3692 21.4256 18.149 21.4256C18.0798 21.4256 18.0106 21.434 17.9435 21.4507C16.3541 21.8533 14.9743 21.4402 13.7203 20.1885C12.9696 19.4378 12.5041 18.251 12.4747 17.0139C12.4432 15.693 12.8857 14.5062 13.7203 13.6716C14.557 12.835 15.7438 12.3947 17.0628 12.4262C18.3 12.4555 19.4869 12.9231 20.2376 13.6716C21.4916 14.9255 21.9047 16.3073 21.5 17.8987C21.4266 18.186 21.5105 18.488 21.7202 18.6976L33.2553 30.2318C33.465 30.4415 33.7669 30.5233 34.0542 30.452C35.6458 30.0494 37.0277 30.4625 38.2817 31.7143C39.7873 33.2197 40.1165 36.3964 38.2817 38.2312L38.2797 38.2312ZM19.5958 14.9068C19.5182 14.6174 19.2917 14.391 19.0024 14.3134L16.5321 13.6508C16.2428 13.5732 15.9345 13.655 15.7227 13.8667L13.9152 15.6742C13.7034 15.8859 13.6216 16.1942 13.6992 16.4835L14.3618 18.9535C14.4394 19.2429 14.6659 19.4672 14.9532 19.5448L17.4192 20.2074C17.4905 20.2263 17.5639 20.2368 17.6373 20.2368C17.8575 20.2368 18.0714 20.1508 18.2307 19.9915L20.0383 18.184C20.2501 17.9723 20.3319 17.664 20.2543 17.3747L19.5937 14.9047L19.5958 14.9068ZM17.3877 18.465L15.8548 18.054L15.4438 16.5192L16.5657 15.3974L18.1007 15.8084L18.5116 17.3432L17.3898 18.465L17.3877 18.465ZM37.0465 32.3562L34.5763 31.6936C34.2869 31.616 33.9786 31.6978 33.7669 31.9095L31.9593 33.717C31.7475 33.9287 31.6657 34.237 31.7433 34.5263L32.406 36.9963C32.4835 37.2857 32.71 37.51 32.9973 37.5876L35.4633 38.2502C35.5346 38.2691 35.608 38.2796 35.6814 38.2796C35.8995 38.2796 36.1134 38.1936 36.2728 38.0343L38.0824 36.2268C38.2942 36.0151 38.3781 35.7068 38.3005 35.4175L37.6379 32.9475C37.5603 32.6581 37.3338 32.4338 37.0465 32.3562ZM35.4319 36.5078L33.899 36.0968L33.488 34.562L34.6098 33.4402L36.1448 33.8512L36.5558 35.386L35.4319 36.5078ZM22.3555 29.5968C22.6826 29.9239 22.6826 30.4544 22.3555 30.7815L16.2095 36.9249C16.0459 37.0884 15.8321 37.1702 15.6161 37.1702C15.4022 37.1702 15.1862 37.0884 15.0226 36.9249C14.6955 36.5978 14.6955 36.0672 15.0226 35.7402L21.1686 29.5968C21.4958 29.2697 22.0263 29.2697 22.3534 29.5968H22.3555Z" fill="#D5BD9E"/>
</svg>
