<svg width="52" height="52" viewBox="0 0 52 52" fill="none" xmlns="http://www.w3.org/2000/svg">
<path d="M41.8488 19.791C41.1485 20.6234 38.0509 23.3521 37.7705 26.8313C37.7705 29.0202 39.6001 30.801 41.8488 30.801C44.0975 30.801 45.927 29.0201 45.927 26.8313C45.6424 23.3444 42.5546 20.6312 41.8488 19.791ZM41.8488 29.3212C40.4384 29.3212 39.2909 28.2041 39.2909 26.8313C39.2909 25.317 40.8284 23.1888 41.8492 21.9915C42.8702 23.1874 44.4067 25.3133 44.4067 26.8313C44.4067 28.2041 43.2591 29.3212 41.8488 29.3212Z" fill="#D5BD9E"/>
<path d="M3.31836 24.3657L4.3933 25.4122C7.56834 22.3219 12.7342 22.3219 15.9092 25.4122L16.9841 24.3657C13.2165 20.6984 7.08582 20.6984 3.31836 24.3657Z" fill="#D5BD9E"/>
<path d="M5.41699 26.4116L6.49213 27.4581C8.50967 25.4941 11.7928 25.4941 13.8104 27.4581L14.8856 26.4116C12.275 23.8706 8.02745 23.8706 5.41699 26.4116Z" fill="#D5BD9E"/>
<path d="M7.51562 28.454L8.59077 29.5005C9.45151 28.6624 10.8519 28.6621 11.7123 29.4998L12.7874 28.4533C11.3342 27.0388 8.96939 27.0389 7.51562 28.454Z" fill="#D5BD9E"/>
<path d="M42.3157 15.5978C40.7708 13.1214 38.6403 11.0187 36.1177 9.48081C35.9012 4.21724 31.4353 0 25.9757 0C20.4956 0 16.0166 4.24897 15.8315 9.54002C13.338 11.0805 11.2249 13.1838 9.69993 15.6448C4.31113 15.8754 0 20.2143 0 25.5154C0 30.9637 4.55366 35.3962 10.151 35.3962C15.7483 35.3962 20.3019 30.9637 20.3019 25.5154C20.3019 20.4967 16.4381 16.3401 11.4538 15.7157C12.6498 13.9814 14.1711 12.4644 15.9239 11.2586C16.6147 16.057 20.8587 19.7616 25.9757 19.7616C31.113 19.7616 35.3706 16.0276 36.0358 11.2015C37.8094 12.4058 39.3463 13.9227 40.5574 15.6665C35.5677 16.2861 31.6981 20.4453 31.6981 25.4677C31.6981 30.9161 36.2517 35.3485 41.849 35.3485C47.4463 35.3485 52 30.9161 52 25.4677C52 20.1717 47.6972 15.8361 42.3157 15.5978ZM18.7816 25.5154C18.7816 30.1476 14.9099 33.9164 10.151 33.9164C5.39205 33.9164 1.52029 30.1476 1.52029 25.5154C1.52029 20.8831 5.39205 17.1144 10.151 17.1144C14.9099 17.1144 18.7816 20.883 18.7816 25.5154ZM25.9757 18.2818C21.2168 18.2818 17.345 14.513 17.345 9.88079C17.345 5.24854 21.2168 1.47983 25.9757 1.47983C30.7346 1.47983 34.6064 5.24854 34.6064 9.88079C34.6064 14.513 30.7346 18.2818 25.9757 18.2818ZM41.849 33.8687C37.0901 33.8687 33.2184 30.1 33.2184 25.4677C33.2184 20.8355 37.0901 17.0668 41.849 17.0668C46.6079 17.0668 50.4797 20.8355 50.4797 25.4677C50.4797 30.1 46.6079 33.8687 41.849 33.8687Z" fill="#D5BD9E"/>
<path d="M25.976 3.00391C23.0846 3.00391 20.7324 5.29349 20.7324 8.10791C20.7324 9.83854 21.6227 11.3698 22.98 12.2932V16.1929H29.0471V12.2411C30.362 11.3128 31.2195 9.80651 31.2195 8.10801C31.2196 5.29359 28.8673 3.00391 25.976 3.00391ZM27.5269 14.7131H24.5003V13.0048C24.9687 13.1388 25.4636 13.2119 25.976 13.2119C26.5157 13.2119 27.0365 13.132 27.5269 12.984V14.7131ZM25.976 11.7321C23.923 11.7321 22.2527 10.1063 22.2527 8.10791C22.2527 6.10957 23.923 4.48373 25.976 4.48373C28.029 4.48373 29.6993 6.10957 29.6993 8.10791C29.6993 10.1063 28.029 11.7321 25.976 11.7321Z" fill="#D5BD9E"/>
<path d="M35.9375 43.1467V39.4802L39.1818 39.4856L26.0172 26.6875L12.8613 39.4781L16.1375 39.4784L16.1361 50.6159H35.9549V44.6619H34.4346V49.1361H29.0565V41.6745H22.9306V49.1361H17.6567L17.6579 39.4786L19.3158 39.4788L25.9943 33.0054L32.6871 39.4748L34.4173 39.4776V43.1467H35.9375ZM24.4509 43.1543H27.5362V49.1361H24.4509V43.1543ZM33.3148 37.9958L25.9926 30.9183L18.6881 37.9989L16.5345 37.9986L26.0173 28.7791L35.5018 37.9996L33.3148 37.9958Z" fill="#D5BD9E"/>
</svg>
