<svg width="58" height="58" viewBox="0 0 58 58" fill="none" xmlns="http://www.w3.org/2000/svg">
<path d="M12.9439 44.8317C13.265 45.2027 13.4418 45.6768 13.4418 46.1667V51.6206C13.4418 51.9412 13.7012 52.2006 14.0218 52.2006H23.9129C24.2335 52.2006 24.4929 51.9412 24.4929 51.6206V39.853C24.4929 38.9988 24.1604 38.1951 23.5561 37.5913L16.5695 30.6053C15.9617 29.9975 15.1534 29.6628 14.2942 29.6628C13.5329 29.6628 12.8125 29.925 12.2359 30.4064V22.543C12.2359 20.8387 10.9603 19.3819 9.33191 19.2267C8.42793 19.1361 7.52281 19.4391 6.85389 20.048C6.18383 20.6569 5.7998 21.5246 5.7998 22.4297V34.4189C5.7998 35.8179 6.30447 37.1705 7.22035 38.228L12.9439 44.8317ZM6.9598 22.4297C6.9598 21.8509 7.20562 21.2958 7.63383 20.9061C8.0677 20.5119 8.63127 20.3284 9.22203 20.3811C10.2614 20.4802 11.0759 21.43 11.0759 22.543V32.8454C11.0759 32.8618 11.0764 32.8777 11.0776 32.8935C11.081 33.7137 11.3948 34.5322 12.0189 35.1563L16.4346 39.5726C16.6612 39.7992 17.0282 39.7992 17.2548 39.5726C17.4814 39.346 17.4814 38.979 17.2548 38.7524L12.8391 34.3362C12.0365 33.5336 12.0365 32.228 12.8391 31.4254C13.6162 30.6483 14.9722 30.6483 15.7493 31.4254L22.7359 38.4115C23.1211 38.7966 23.3329 39.3087 23.3329 39.853V51.0406H14.6018V46.1667C14.6018 45.3981 14.3242 44.6544 13.8207 44.0721L8.09715 37.4678C7.36365 36.6216 6.9598 35.5392 6.9598 34.4189V22.4297Z" fill="#D5BD9E"/>
<path d="M48.6678 19.2269C47.0394 19.3821 45.7639 20.8389 45.7639 22.5432V30.4072C45.1873 29.9252 44.4668 29.6629 43.7055 29.6629C42.8463 29.6629 42.038 29.9977 41.4303 30.6054L34.4437 37.5915C33.8393 38.1953 33.5068 38.999 33.5068 39.8531V51.6208C33.5068 51.9414 33.7662 52.2008 34.0868 52.2008H43.978C44.2986 52.2008 44.558 51.9414 44.558 51.6208V46.1669C44.558 45.6769 44.7347 45.2028 45.0559 44.8324L50.7794 38.2281C51.6953 37.1706 52.1999 35.818 52.1999 34.419V22.4299C52.1999 21.5248 51.8159 20.6571 51.1459 20.0482C50.4764 19.4393 49.569 19.1357 48.6678 19.2269ZM51.0399 34.419C51.0399 35.5394 50.6361 36.6218 49.9026 37.468L44.1791 44.0729C43.6755 44.6546 43.398 45.3982 43.398 46.1669V51.0408H34.6668V39.8531C34.6668 39.3088 34.8787 38.7968 35.2638 38.4116L42.2504 31.4256C43.0281 30.6485 44.3841 30.6485 45.1606 31.4256C45.9632 32.2282 45.9632 33.5337 45.1606 34.3363L40.7449 38.7526C40.5184 38.9792 40.5184 39.3462 40.7449 39.5728C40.9715 39.7993 41.3385 39.7993 41.5651 39.5728L45.9808 35.1565C46.605 34.5323 46.9188 33.7133 46.9222 32.8937C46.9233 32.8778 46.9239 32.862 46.9239 32.8455V22.5432C46.9239 21.4302 47.7384 20.4803 48.7777 20.3812C49.3707 20.3285 49.9321 20.5121 50.3659 20.9063C50.7941 21.296 51.0399 21.851 51.0399 22.4299V34.419Z" fill="#D5BD9E"/>
<path d="M21.0318 12.8208C18.8302 14.9788 17.6175 17.8647 17.6175 20.9465V22.1293C16.5419 22.3307 15.7246 23.2728 15.7246 24.4061V27.2319C15.7246 28.5114 16.7651 29.5519 18.0446 29.5519H39.9555C41.235 29.5519 42.2755 28.5114 42.2755 27.2319V24.4061C42.2755 23.2728 41.4581 22.3307 40.3825 22.1293V21.1634C40.3825 15.0132 35.5667 9.90383 29.58 9.59507V6.96078H31.7873C32.1079 6.96078 32.3673 6.70137 32.3673 6.38078C32.3673 6.0602 32.1079 5.80078 31.7873 5.80078H26.2128C25.8922 5.80078 25.6328 6.0602 25.6328 6.38078C25.6328 6.70137 25.8922 6.96078 26.2128 6.96078H28.42V9.59379C25.6282 9.73157 23.0393 10.8526 21.0318 12.8208ZM41.1155 24.4061V27.2319C41.1155 27.8714 40.5949 28.3919 39.9555 28.3919H18.0446C17.4051 28.3919 16.8846 27.8714 16.8846 27.2319V24.4061C16.8846 23.7666 17.4051 23.2461 18.0446 23.2461H39.9555C40.5949 23.2461 41.1155 23.7666 41.1155 24.4061ZM39.2225 21.1634V22.0861H18.7775V20.9465C18.7775 18.179 19.8662 15.5871 21.8435 13.6495C23.8214 11.7107 26.4365 10.6651 29.2102 10.7302C34.7309 10.8407 39.2225 15.5209 39.2225 21.1634Z" fill="#D5BD9E"/>
</svg>
