<svg width="52" height="52" viewBox="0 0 52 52" fill="none" xmlns="http://www.w3.org/2000/svg">
<path d="M49.3411 26.6832C49.1611 26.1586 48.7599 25.742 48.2404 25.5363C47.0935 25.0785 45.2831 25.3717 43.9407 27.6913L40.8702 33.0042C39.9547 32.5156 38.5918 32.4384 36.9048 33.4105L33.0371 35.6426C30.841 36.2495 29.4009 37.3502 28.7529 38.9137C28.2077 40.2355 28.3517 41.5728 28.4494 42.4574C28.4751 42.7043 28.5008 42.9151 28.5008 43.054L28.5008 43.7792C27.7962 43.9489 27.2665 44.5764 27.2665 45.3324L27.2665 47.7909C27.2665 48.6755 27.9865 49.3956 28.8711 49.3956L37.558 49.3956C38.4426 49.3956 39.1627 48.6755 39.1627 47.7909L39.1627 45.3324C39.1627 44.5764 38.6329 43.9438 37.9283 43.7792L37.9283 43.054C37.9283 42.2311 38.0672 42.1488 38.6484 41.8145L41.2817 40.2921C42.2743 39.7212 42.9995 38.9909 43.5704 38.0034L49.1919 28.2673C49.4645 27.7838 49.5211 27.2078 49.3411 26.6832ZM37.8152 47.7909C37.8152 47.9349 37.6969 48.048 37.558 48.048L28.8711 48.048C28.7271 48.048 28.614 47.9298 28.614 47.7909L28.614 45.3324C28.614 45.1884 28.7323 45.0753 28.8711 45.0753L37.558 45.0753C37.702 45.0753 37.8152 45.1936 37.8152 45.3324L37.8152 47.7909ZM48.0244 27.5987L42.4029 37.3348C41.9503 38.1217 41.3948 38.6771 40.6028 39.1349L37.9695 40.6521C37.1568 41.1202 36.5808 41.5676 36.5808 43.054L36.5808 43.7329L29.8432 43.7329L29.8432 43.054C29.8432 42.8431 29.8175 42.5963 29.7866 42.3134C29.6015 40.611 29.3238 38.0342 33.4743 36.9182C33.5309 36.9027 33.5875 36.8822 33.6389 36.8513L37.5786 34.578C39.1575 33.6677 40.2016 33.9557 40.6542 34.5317C40.7571 34.6654 40.7982 34.83 40.7674 34.9895C40.7365 35.154 40.6388 35.2878 40.4896 35.3752L36.2414 37.8285C35.9225 38.0137 35.8093 38.4251 35.9945 38.744C36.1796 39.0629 36.5911 39.176 36.91 38.9909L41.1583 36.5376C41.6417 36.2598 41.976 35.7867 42.084 35.2415C42.1715 34.7992 42.0943 34.3414 41.8783 33.9505L45.1031 28.3599C46.0134 26.7809 47.0626 26.5083 47.7415 26.7809C47.901 26.8426 48.0141 26.9661 48.0707 27.1204C48.1273 27.2849 48.1067 27.4495 48.0244 27.5987ZM22.977 43.7792L22.977 43.054C22.977 42.9151 22.9976 42.7043 23.0285 42.4574C23.1262 41.5728 23.2702 40.2355 22.725 38.9137C22.0821 37.3502 20.6369 36.2495 18.4407 35.6427L14.5731 33.4105C12.8861 32.4384 11.5231 32.5156 10.6076 33.0042L7.53715 27.6913C6.19478 25.3665 4.38437 25.0785 3.23744 25.5363C2.71798 25.742 2.31681 26.1637 2.13679 26.6832C1.95678 27.2078 2.01336 27.7838 2.29109 28.2673L7.91261 38.0034C8.4835 38.996 9.21384 39.7212 10.2013 40.2921L12.8347 41.8145C13.4158 42.1488 13.5547 42.2311 13.5547 43.054L13.5547 43.7792C12.8501 43.9489 12.3203 44.5764 12.3203 45.3324L12.3203 47.7909C12.3203 48.6755 13.0404 49.3956 13.925 49.3956L22.6119 49.3956C23.4965 49.3956 24.2166 48.6755 24.2166 47.7909L24.2166 45.3324C24.2114 44.5815 23.6817 43.9489 22.977 43.7792ZM13.5084 40.6521L10.8751 39.1297C10.0882 38.6771 9.53272 38.1217 9.07497 37.3296L3.45345 27.5987C3.37116 27.4495 3.35059 27.2849 3.40716 27.1255C3.46374 26.9661 3.57689 26.8478 3.73633 26.7861C4.41523 26.5135 5.46444 26.7861 6.37479 28.365L9.59958 33.9557C9.38356 34.3466 9.30641 34.8043 9.39385 35.2466C9.49671 35.7918 9.83616 36.265 10.3196 36.5427L14.5679 38.996C14.8868 39.1812 15.2982 39.0732 15.4834 38.7491C15.6686 38.4303 15.5605 38.0188 15.2365 37.8337L10.9882 35.3803C10.8391 35.2929 10.7414 35.1592 10.7105 34.9946C10.6796 34.83 10.7208 34.6654 10.8237 34.5369C11.2763 33.9608 12.3203 33.6728 13.8993 34.5831L17.839 36.8564C17.8904 36.8873 17.9418 36.9079 18.0036 36.9233C22.1541 38.0342 21.8764 40.611 21.6912 42.3185C21.6604 42.6014 21.6347 42.8483 21.6347 43.0591L21.6347 43.738L14.8971 43.738L14.8971 43.0591C14.8971 41.5676 14.321 41.1202 13.5084 40.6521ZM22.8639 47.7909C22.8639 47.9349 22.7456 48.048 22.6067 48.048L13.925 48.048C13.781 48.048 13.6678 47.9298 13.6678 47.7909L13.6678 45.3324C13.6678 45.1884 13.7861 45.0753 13.925 45.0753L22.6119 45.0753C22.7559 45.0753 22.869 45.1936 22.869 45.3324L22.869 47.7909L22.8639 47.7909ZM8.6378 15.939C8.45264 15.6819 8.50922 15.3219 8.76638 15.1367L10.9522 13.5526C11.2094 13.3674 11.5694 13.424 11.7546 13.6812L13.3387 15.867C13.5238 16.1242 13.4673 16.4842 13.2101 16.6694C12.9529 16.8545 12.5929 16.798 12.4078 16.5408L11.6003 15.4247C11.4974 16.1139 11.4511 16.8134 11.4511 17.5129C11.4511 23.3247 14.9228 28.5142 20.3026 30.7257C20.5957 30.8492 20.7346 31.1835 20.6163 31.4767C20.5237 31.6978 20.3077 31.8315 20.0814 31.8315C20.0094 31.8315 19.9323 31.8161 19.8603 31.7904C17.0675 30.6383 14.6862 28.7045 12.9735 26.1997C11.2197 23.6333 10.2939 20.6296 10.2939 17.5077C10.2939 16.7774 10.3453 16.0471 10.4482 15.327L9.44014 16.0573C9.18298 16.2579 8.82295 16.1962 8.6378 15.939ZM39.6616 14.2932C39.5896 13.9846 39.785 13.676 40.0936 13.604C40.4022 13.532 40.7108 13.7275 40.7828 14.0361C41.0451 15.1727 41.1788 16.3454 41.1788 17.5232C41.1788 20.6399 40.253 23.6487 38.4992 26.2152C37.0437 28.3496 35.0996 30.0674 32.8263 31.2401L34.0041 31.6361C34.3075 31.739 34.4669 32.063 34.3641 32.3664C34.2818 32.6082 34.0606 32.7573 33.8189 32.7573C33.7572 32.7573 33.6955 32.747 33.6338 32.7265L31.0776 31.8624C30.9336 31.8161 30.8153 31.7081 30.7433 31.5744C30.6764 31.4355 30.6661 31.2812 30.7124 31.1372L31.5765 28.581C31.6793 28.2776 32.0034 28.1181 32.3068 28.221C32.6103 28.3239 32.7697 28.6479 32.6668 28.9513L32.2245 30.2577C36.9923 27.8301 40.0165 22.9492 40.0165 17.5283C40.0267 16.4277 39.9033 15.3424 39.6616 14.2932ZM15.0719 7.15446C14.8508 6.92302 14.8611 6.55785 15.0925 6.34184C17.9727 3.59023 21.753 2.07812 25.7389 2.07812C29.226 2.07812 32.5588 3.24049 35.2693 5.36977L35.1407 4.13026C35.1098 3.81138 35.3361 3.52851 35.655 3.49765C35.9688 3.46679 36.2568 3.69309 36.2876 4.01197L36.5654 6.69672C36.5962 7.0156 36.3699 7.29847 36.0511 7.32933L33.3663 7.60706C33.3457 7.60706 33.3252 7.61221 33.3046 7.61221C33.0114 7.61221 32.7645 7.39105 32.7337 7.09274C32.7028 6.77387 32.9291 6.49099 33.248 6.46013L34.6161 6.32126C32.0959 4.32056 28.9894 3.2302 25.7389 3.2302C22.0513 3.2302 18.5539 4.62915 15.8846 7.17504C15.6531 7.39105 15.288 7.38076 15.0719 7.15446ZM35.8762 17.518C35.8762 11.9274 31.3296 7.38076 25.7389 7.38076C20.1483 7.38076 15.6017 11.9274 15.6017 17.518C15.6017 23.1087 20.1483 27.6553 25.7389 27.6553C31.3296 27.6553 35.8762 23.1087 35.8762 17.518ZM25.7389 26.5032C20.786 26.5032 16.7538 22.4709 16.7538 17.518C16.7538 12.5651 20.786 8.53284 25.7389 8.53284C30.6918 8.53284 34.7241 12.5651 34.7241 17.518C34.7241 22.4709 30.6918 26.5032 25.7389 26.5032Z" fill="#D5BD9E"/>
<path d="M29.8196 15.7116L29.4467 17.0273L22.4634 17.0273L22.8363 15.7116L29.8196 15.7116ZM26.4212 24L22.6072 19.3711L22.5966 18.3324L24.4876 18.3324C24.9599 18.3324 25.3594 18.2596 25.6861 18.114C26.0128 17.9684 26.2614 17.7571 26.4318 17.4801C26.6023 17.1996 26.6875 16.8587 26.6875 16.4574C26.6875 15.8608 26.5099 15.3867 26.1548 15.0352C25.7997 14.6836 25.244 14.5078 24.4876 14.5078L22.4634 14.5078L22.8523 13.0909L24.4876 13.0909C25.3683 13.0909 26.0945 13.2312 26.6662 13.5117C27.2379 13.7923 27.6641 14.1811 27.9446 14.6783C28.2251 15.1754 28.3654 15.7489 28.3654 16.3988C28.3654 16.9776 28.25 17.5014 28.0192 17.9702C27.7884 18.4389 27.4208 18.8207 26.9165 19.1154C26.4123 19.4102 25.75 19.5824 24.9297 19.6321L24.8817 19.6428L28.3654 23.9094L28.3654 24L26.4212 24ZM29.8249 13.0909L29.4467 14.4173L23.8643 14.3853L24.2425 13.0909L29.8249 13.0909Z" fill="#D5BD9E"/>
</svg>
