<svg width="52" height="55" viewBox="0 0 52 55" fill="none" xmlns="http://www.w3.org/2000/svg">
<path d="M48.7444 6.60821C46.9735 6.98782 45.2691 7.33783 43.6111 7.67668C38.4517 8.7359 33.5784 9.73587 28.5429 11.258C18.756 14.219 3.96675 18.6912 2.46726 33.2721C1.76738 40.0809 4.73488 46.1104 7.3458 49.9678C7.4566 50.1326 7.62648 50.2437 7.82037 50.2807C8.01242 50.3178 8.21185 50.2752 8.37436 50.1622C8.71044 49.9289 8.79538 49.4659 8.56641 49.1252C6.09381 45.4717 3.28321 39.785 3.93699 33.4279C5.33484 19.8377 18.9924 15.7064 28.9655 12.69C33.9367 11.1863 38.7784 10.1938 43.9047 9.14196C45.5684 8.80123 47.2765 8.45126 49.0512 8.06979C49.4501 7.98276 49.7049 7.58834 49.6218 7.18649C49.5369 6.78651 49.1454 6.52727 48.7447 6.60871L48.7444 6.60821Z" fill="#D5BD9E"/>
<path d="M48.7666 13.7016C42.5176 14.8385 26.8089 18.5179 22.5799 20.3644C19.0012 21.9254 16.8684 24.3846 16.5692 27.2846C16.2386 30.5067 17.4943 33.9138 20.4101 37.6991L21.4128 39.0027C24.0238 42.4007 26.0865 45.0858 29.1409 48.5506H29.1428C29.3311 48.7654 29.6284 48.8506 29.9017 48.7691C30.1769 48.6877 30.38 48.4562 30.4225 48.1729L32.1306 37.4086H30.6348L29.213 46.371C26.733 43.4897 24.8679 41.064 22.5801 38.086L21.5774 36.7805C18.9073 33.314 17.7513 30.2566 18.0393 27.4383C18.3625 24.281 21.389 22.5105 23.1656 21.735C23.3299 21.6628 23.5201 21.5868 23.7233 21.5091V24.1923C22.6836 24.4053 21.9358 25.3256 21.9376 26.3903V27.8847C21.9358 28.2939 22.2663 28.6291 22.6763 28.631H30.0626C30.4726 28.6291 30.8031 28.2939 30.8013 27.8847V26.3903C30.8031 25.3256 30.0571 24.4052 29.0175 24.1923V19.8462C35.2017 18.1203 44.0984 16.0685 49.029 15.1723C49.4315 15.0982 49.6975 14.7112 49.6254 14.3075C49.5534 13.9039 49.1712 13.6335 48.7668 13.702L48.7666 13.7016ZM25.2002 20.9882C25.889 20.7623 26.6775 20.5197 27.5398 20.2679V24.1492L25.2002 24.1474V20.9882ZM29.3237 26.3901V27.1363H23.4146V26.3901C23.4146 25.979 23.7451 25.6457 24.1532 25.642H28.585C28.995 25.6457 29.3255 25.979 29.3237 26.3901Z" fill="#D5BD9E"/>
<path d="M39.2953 43.0039C38.8854 43.0058 38.5548 43.3409 38.5567 43.752V45.2797V45.2779C38.5548 45.476 38.6324 45.6649 38.7709 45.8057C38.9094 45.9464 39.0977 46.0242 39.2953 46.0242C39.4929 46.0242 39.6813 45.9464 39.8198 45.8057C39.9583 45.6649 40.0358 45.476 40.034 45.2779V43.7502V43.752C40.0358 43.3409 39.7053 43.0058 39.2953 43.0039Z" fill="#D5BD9E"/>
<path d="M39.2953 38.4258C38.8854 38.4276 38.5548 38.761 38.5567 39.172V40.6998C38.5548 40.8961 38.6324 41.0868 38.7709 41.2257C38.9094 41.3664 39.0977 41.446 39.2953 41.446C39.4929 41.446 39.6813 41.3664 39.8198 41.2257C39.9583 41.0868 40.0358 40.8961 40.034 40.6998V39.172C40.0358 38.7609 39.7053 38.4276 39.2953 38.4258Z" fill="#D5BD9E"/>
<path d="M39.2953 24.6836C38.8854 24.6854 38.5548 25.0206 38.5567 25.4317V26.9576C38.5548 27.1557 38.6324 27.3446 38.7709 27.4853C38.9094 27.6261 39.0977 27.7039 39.2953 27.7039C39.4929 27.7039 39.6813 27.6261 39.8198 27.4853C39.9583 27.3446 40.0358 27.1557 40.034 26.9576V25.4317C40.0358 25.0206 39.7053 24.6854 39.2953 24.6836Z" fill="#D5BD9E"/>
<path d="M39.2953 20.1055C38.8854 20.1073 38.5548 20.4425 38.5567 20.8517V22.3795C38.5548 22.5776 38.6324 22.7665 38.7709 22.9072C38.9094 23.0461 39.0977 23.1257 39.2953 23.1257C39.4929 23.1257 39.6813 23.0461 39.8198 22.9072C39.9583 22.7665 40.0358 22.5776 40.034 22.3795V20.8517C40.0358 20.4425 39.7053 20.1073 39.2953 20.1055Z" fill="#D5BD9E"/>
<path d="M39.2953 47.5859C38.8854 47.5878 38.5548 47.9211 38.5567 48.3322V49.0784C38.5548 49.2766 38.6324 49.4673 38.7709 49.6062C38.9094 49.7469 39.0977 49.8266 39.2953 49.8266C39.4929 49.8266 39.6813 49.7469 39.8198 49.6062C39.9583 49.4673 40.0358 49.2766 40.034 49.0784V48.3322C40.0358 47.9211 39.7053 47.5878 39.2953 47.5859Z" fill="#D5BD9E"/>
<path d="M30.9288 15.9719C30.9916 15.9719 31.0543 15.9645 31.1171 15.9478L32.5482 15.5682V15.5663C32.9434 15.4608 33.1797 15.0516 33.0745 14.6553C33.0265 14.4645 32.9046 14.2997 32.7347 14.1997C32.5648 14.0997 32.3636 14.072 32.1734 14.122L30.7404 14.5034C30.3804 14.5997 30.1477 14.9497 30.1957 15.3201C30.2437 15.6904 30.5558 15.9682 30.9288 15.9719Z" fill="#D5BD9E"/>
<path d="M26.589 16.9883C26.6536 16.9883 26.7183 16.979 26.781 16.9624C27.2501 16.8346 27.7247 16.7161 28.19 16.6124V16.6105C28.5889 16.5198 28.8382 16.1217 28.7495 15.7217C28.6609 15.3217 28.2676 15.068 27.8668 15.1532C27.3812 15.2624 26.8882 15.3865 26.3988 15.5198V15.518C26.0387 15.618 25.8079 15.9661 25.8559 16.3365C25.9058 16.7068 26.2178 16.9846 26.589 16.9883Z" fill="#D5BD9E"/>
<path d="M15.4982 23.0161C15.8176 22.6846 16.1648 22.355 16.5286 22.0402C16.8388 21.7699 16.8739 21.3014 16.6098 20.9865C16.4824 20.8365 16.3015 20.744 16.1057 20.7291C15.91 20.7125 15.7161 20.7773 15.5684 20.9069C15.1714 21.2513 14.791 21.6106 14.442 21.9754L14.4401 21.9735C14.1557 22.2717 14.1613 22.742 14.453 23.0309C14.5934 23.1698 14.7836 23.2457 14.9793 23.242C15.1751 23.2401 15.3615 23.1587 15.4982 23.0161Z" fill="#D5BD9E"/>
<path d="M22.3846 18.4213C22.4806 18.4213 22.5767 18.4009 22.6653 18.3639C23.1011 18.1824 23.5553 18.0046 24.0152 17.8361C24.3993 17.6935 24.5987 17.2676 24.4602 16.8806C24.3937 16.6954 24.2571 16.5417 24.0798 16.4584C23.9025 16.3732 23.6994 16.364 23.5148 16.4306C23.0346 16.6065 22.5582 16.7917 22.1021 16.9825V16.9843C21.7236 17.1436 21.5444 17.5787 21.7014 17.9584C21.814 18.238 22.0836 18.4194 22.3846 18.4213Z" fill="#D5BD9E"/>
<path d="M18.4344 20.4581C18.5729 20.4581 18.7077 20.4192 18.8259 20.3451C19.2229 20.0933 19.6384 19.8488 20.0631 19.6155V19.6137C20.4232 19.4155 20.5544 18.9637 20.3604 18.6008C20.2681 18.4285 20.1093 18.2989 19.9228 18.2415C19.7345 18.186 19.5313 18.2063 19.3596 18.3008C18.9072 18.5489 18.464 18.81 18.043 19.0767L18.0411 19.0785C17.6958 19.2989 17.5905 19.7581 17.8066 20.1081C17.9414 20.3248 18.1796 20.4581 18.4344 20.4581Z" fill="#D5BD9E"/>
<path d="M48.7387 9.97437L47.9909 10.1429C47.6234 10.2281 47.3778 10.5762 47.4185 10.9521C47.4591 11.328 47.7748 11.615 48.1516 11.6187C48.207 11.6187 48.2605 11.6131 48.3141 11.6002L49.0564 11.4335C49.4552 11.3428 49.7082 10.9447 49.6196 10.5428C49.579 10.3502 49.4626 10.1817 49.2964 10.0743C49.1321 9.96878 48.9308 9.93178 48.7387 9.97437Z" fill="#D5BD9E"/>
<path d="M43.8331 12.6453C43.8922 12.6453 43.9495 12.6379 44.0067 12.6231C44.4923 12.5046 44.9725 12.3861 45.4415 12.2731H45.4434C45.8404 12.175 46.0842 11.775 45.9899 11.3769C45.8958 10.9769 45.4987 10.7287 45.0999 10.8195C44.6272 10.9343 44.1471 11.0509 43.6595 11.1713H43.6577C43.2939 11.2639 43.0557 11.612 43.1 11.9842C43.1425 12.3583 43.4583 12.6416 43.8331 12.6453Z" fill="#D5BD9E"/>
<path d="M39.5241 13.7263C39.585 13.7263 39.6459 13.7189 39.705 13.704C40.1796 13.5818 40.6579 13.4615 41.138 13.3392C41.535 13.2374 41.7751 12.8319 41.6753 12.4337C41.631 12.2411 41.5091 12.0763 41.3411 11.9745C41.173 11.8726 40.9718 11.8411 40.7816 11.8893C40.2996 12.0096 39.8213 12.1319 39.3449 12.2541H39.343C38.9811 12.3485 38.7448 12.6967 38.7909 13.0689C38.8371 13.4411 39.151 13.7226 39.5241 13.7263Z" fill="#D5BD9E"/>
<path d="M35.2239 14.8388C35.2867 14.8388 35.3495 14.8314 35.4104 14.8166L36.8415 14.4426C37.2367 14.3389 37.4749 13.9333 37.3733 13.5352C37.2718 13.1389 36.8711 12.8963 36.4741 12.9945L35.0392 13.3685C34.6792 13.4648 34.4446 13.8148 34.4927 14.1852C34.5388 14.5555 34.8509 14.8351 35.2239 14.8388Z" fill="#D5BD9E"/>
<path d="M17.0233 45.286C16.9144 45.1212 16.7464 45.0064 16.5543 44.9675C16.3604 44.9286 16.161 44.9694 15.9985 45.0786C15.6587 45.3101 15.5664 45.7712 15.7935 46.1138C16.065 46.5249 16.3475 46.9397 16.6411 47.3619C16.7537 47.5248 16.9255 47.6341 17.1194 47.6674C17.3114 47.7007 17.5108 47.6563 17.6715 47.5415C18.0039 47.3008 18.0833 46.8378 17.8469 46.5008C17.5607 46.0897 17.2856 45.686 17.0233 45.286Z" fill="#D5BD9E"/>
<path d="M13.5576 38.868C13.3711 38.4124 13.1993 37.955 13.0461 37.5125H13.0442C12.9814 37.3254 12.8466 37.1717 12.6694 37.0865C12.4939 36.9995 12.289 36.9884 12.1043 37.0532C11.7184 37.1902 11.5153 37.6162 11.6501 38.005C11.8126 38.4754 11.9954 38.9568 12.1911 39.4401V39.4383C12.3056 39.7179 12.5752 39.8994 12.8743 39.9012C12.9722 39.9012 13.0682 39.8808 13.1569 39.8438C13.5354 39.6827 13.7127 39.2476 13.5576 38.868Z" fill="#D5BD9E"/>
<path d="M14.7873 41.5077C14.6968 41.3318 14.5398 41.2022 14.3533 41.1429C14.165 41.0837 13.9618 41.1041 13.7883 41.1948C13.4282 41.3892 13.2897 41.8411 13.4799 42.204C13.7089 42.6429 13.9544 43.091 14.2075 43.5354V43.5373C14.3053 43.7076 14.466 43.8336 14.6543 43.8854C14.8445 43.9354 15.0476 43.9095 15.2157 43.8095C15.5702 43.6021 15.6921 43.1466 15.4871 42.791C15.2434 42.3614 15.007 41.9299 14.7873 41.5077Z" fill="#D5BD9E"/>
<path d="M10.7694 28.8032C10.6641 29.318 10.5902 29.8383 10.5441 30.3624C10.5071 30.7717 10.8081 31.1327 11.2163 31.1716C11.2384 31.1735 11.2606 31.1753 11.2809 31.1753V31.1735C11.665 31.1716 11.9844 30.8753 12.0158 30.492C12.0565 30.0254 12.1229 29.5624 12.2153 29.105C12.2984 28.7014 12.0417 28.3069 11.641 28.2217C11.4471 28.1828 11.2477 28.2217 11.0833 28.331C10.9208 28.4402 10.8063 28.6106 10.7694 28.8032Z" fill="#D5BD9E"/>
<path d="M12.2832 34.7352C12.189 34.2593 12.1133 33.7834 12.0616 33.3223H12.0635C12.0413 33.126 11.9434 32.9464 11.7902 32.8223C11.6369 32.6983 11.4393 32.6427 11.2436 32.6649C11.0479 32.6872 10.8688 32.7872 10.7469 32.9427C10.625 33.0983 10.5714 33.2945 10.5955 33.4908C10.6527 33.9945 10.7339 34.5111 10.8355 35.0278V35.0296C10.8724 35.2222 10.9869 35.3944 11.1494 35.5037C11.3138 35.6129 11.5151 35.6537 11.7071 35.6148C11.901 35.5741 12.0709 35.4593 12.178 35.2944C12.2869 35.1296 12.3238 34.9278 12.2832 34.7352Z" fill="#D5BD9E"/>
<path d="M12.4263 26.8822C12.7125 26.8822 12.971 26.7156 13.0929 26.4563C13.2924 26.0341 13.5158 25.623 13.7633 25.2267C13.9812 24.8786 13.8777 24.4194 13.5306 24.1971C13.3662 24.0916 13.165 24.0564 12.9729 24.1008C12.7827 24.1453 12.6165 24.2638 12.5131 24.4305C12.2361 24.8767 11.9831 25.3378 11.7597 25.8137C11.5842 26.186 11.7394 26.6304 12.1087 26.81C12.2084 26.8563 12.3155 26.8822 12.4263 26.8822Z" fill="#D5BD9E"/>
<path d="M45.1216 17.4414C44.6507 17.5395 44.1669 17.6432 43.6738 17.7507L48.1666 48.1621C48.2201 48.5269 48.5304 48.7973 48.896 48.7991C48.9329 48.7991 48.9699 48.7973 49.0068 48.7917C49.4112 48.7288 49.69 48.3492 49.6291 47.9418L45.1216 17.4414Z" fill="#D5BD9E"/>
<path d="M33.3677 20.1835L31.9385 29.1905H33.4342L34.9263 19.7891C34.4018 19.9205 33.8811 20.052 33.3677 20.1835Z" fill="#D5BD9E"/>
<path d="M39.2958 30.6836H26.0004C25.5904 30.6854 25.2599 31.0206 25.2617 31.4317V35.1667C25.2599 35.5778 25.5904 35.9111 26.0004 35.913H27.4776V38.9017C27.4758 39.0999 27.5533 39.2888 27.6918 39.4295C27.8303 39.5684 28.0205 39.648 28.2163 39.648C28.4139 39.648 28.6022 39.5684 28.7407 39.4295C28.8792 39.2888 28.9568 39.0999 28.9549 38.9017V35.913H39.2958C39.7058 35.9111 40.0363 35.5778 40.0345 35.1667V31.4317C40.0363 31.0206 39.7058 30.6854 39.2958 30.6836ZM38.5572 34.4186H26.739V32.178H38.5572V34.4186Z" fill="#D5BD9E"/>
</svg>
